<svg xmlns="http://www.w3.org/2000/svg" width="360" height="330" viewBox="0 0 360 330">
 <title>Nexus mind map</title>
 <defs>
  <!-- One continuous silhouette: the fork has no overlapping tip or seam. -->
  <path id="branch" d="M169 159 C128 159 135 84 82 84 L18 84 L13 79 L66 79 C73 79 65 49 49 49 L15 49 L12 46 L49 46 C72 46 65 79 82 79 C130 79 130 136 174 137Z"/>
 </defs>
 <g fill="#ff666b"><use href="#branch"/></g>
 <g fill="#9670ef" transform="translate(360 0) scale(-1 1)"><use href="#branch"/></g>
 <g fill="#f6a043" transform="translate(0 330) scale(1 -1)"><use href="#branch"/></g>
 <g fill="#27c8bf" transform="translate(360 330) scale(-1 -1)"><use href="#branch"/></g>
 <g font-family="Helvetica" font-size="13" fill="#7e8795">
  <text x="16" y="73">Ideas</text><text x="16" y="40" font-size="10">Explore</text>
  <text x="346" y="73" text-anchor="end">Patterns</text><text x="346" y="40" text-anchor="end" font-size="10">Look closer</text>
  <text x="16" y="240">Plans</text><text x="16" y="275" font-size="10">Create</text>
  <text x="307" y="240">Notes</text><text x="319" y="275" font-size="10">Learn</text>
 </g>
 <rect x="133" y="126" width="94" height="78" rx="13" fill="#d1d1d1" stroke="#242629" stroke-width="5"/>
 <text x="180" y="174" text-anchor="middle" font-family="Helvetica" font-size="24" fill="#202124">Nexus</text>
 <circle cx="223" cy="200" r="9" fill="#e5e5e5" stroke="#242629" stroke-width="2.5"/>
 <path d="M219 200h8" stroke="#242629" stroke-width="2" stroke-linecap="round"/>
</svg>
